# Blender v2.90.1 OBJ File: 'cs470-hw2.blend'
# www.blender.org
mtllib flagpole.mtl
o Cylinder.100_Cylinder
v -1.064624 -0.375776 6.251230
v -1.064624 1.140368 6.251230
v -1.053078 -0.375776 6.252410
v -1.053078 1.140368 6.252410
v -1.041976 -0.375776 6.255905
v -1.041976 1.140368 6.255905
v -1.031744 -0.375776 6.261579
v -1.031744 1.140368 6.261579
v -1.022776 -0.375776 6.269215
v -1.022776 1.140368 6.269215
v -1.015416 -0.375776 6.278520
v -1.015416 1.140368 6.278520
v -1.009947 -0.375776 6.289136
v -1.009947 1.140368 6.289136
v -1.006579 -0.375776 6.300655
v -1.006579 1.140368 6.300655
v -1.005442 -0.375776 6.312634
v -1.005442 1.140368 6.312634
v -1.006579 -0.375776 6.324614
v -1.006579 1.140368 6.324614
v -1.009947 -0.375776 6.336133
v -1.009947 1.140368 6.336133
v -1.015416 -0.375776 6.346748
v -1.015416 1.140368 6.346748
v -1.022776 -0.375776 6.356053
v -1.022776 1.140368 6.356053
v -1.031744 -0.375776 6.363690
v -1.031744 1.140368 6.363690
v -1.041976 -0.375776 6.369364
v -1.041976 1.140368 6.369364
v -1.053078 -0.375776 6.372859
v -1.053078 1.140368 6.372859
v -1.064624 -0.375776 6.374038
v -1.064624 1.140368 6.374038
v -1.076170 -0.375776 6.372859
v -1.076170 1.140368 6.372859
v -1.087272 -0.375776 6.369364
v -1.087272 1.140368 6.369364
v -1.097504 -0.375776 6.363690
v -1.097504 1.140368 6.363690
v -1.106472 -0.375776 6.356053
v -1.106472 1.140368 6.356053
v -1.113832 -0.375776 6.346748
v -1.113832 1.140368 6.346748
v -1.119301 -0.375776 6.336133
v -1.119301 1.140368 6.336133
v -1.122669 -0.375776 6.324614
v -1.122669 1.140368 6.324614
v -1.123806 -0.375776 6.312634
v -1.123806 1.140368 6.312634
v -1.122669 -0.375776 6.300655
v -1.122669 1.140368 6.300655
v -1.119301 -0.375776 6.289136
v -1.119301 1.140368 6.289136
v -1.113832 -0.375776 6.278520
v -1.113832 1.140368 6.278520
v -1.106472 -0.375776 6.269215
v -1.106472 1.140368 6.269215
v -1.097503 -0.375776 6.261579
v -1.097503 1.140368 6.261579
v -1.087272 -0.375776 6.255904
v -1.087272 1.140368 6.255904
v -1.076169 -0.375776 6.252410
v -1.076169 1.140368 6.252410
v -1.053078 7.479220 6.252410
v -1.064624 7.479220 6.251230
v -1.041976 7.479220 6.255905
v -1.031744 7.479220 6.261579
v -1.022776 7.479220 6.269215
v -1.015416 7.479220 6.278520
v -1.009947 7.479220 6.289136
v -1.006579 7.479220 6.300655
v -1.005442 7.479220 6.312634
v -1.006579 7.479220 6.324614
v -1.009947 7.479220 6.336133
v -1.015416 7.479220 6.346748
v -1.022776 7.479220 6.356053
v -1.031744 7.479220 6.363690
v -1.041976 7.479220 6.369364
v -1.053078 7.479220 6.372859
v -1.064624 7.479220 6.374038
v -1.076170 7.479220 6.372859
v -1.087272 7.479220 6.369364
v -1.097504 7.479220 6.363690
v -1.106472 7.479220 6.356053
v -1.113832 7.479220 6.346748
v -1.119301 7.479220 6.336133
v -1.122669 7.479220 6.324614
v -1.123806 7.479220 6.312634
v -1.122669 7.479220 6.300655
v -1.119301 7.479220 6.289136
v -1.113832 7.479220 6.278520
v -1.106472 7.479220 6.269215
v -1.097504 7.479220 6.261579
v -1.087272 7.479220 6.255904
v -1.076169 7.479220 6.252410
vt 1.000000 0.500000
vt 1.000000 1.000000
vt 0.968750 1.000000
vt 0.968750 0.500000
vt 0.937500 1.000000
vt 0.937500 0.500000
vt 0.906250 1.000000
vt 0.906250 0.500000
vt 0.875000 1.000000
vt 0.875000 0.500000
vt 0.843750 1.000000
vt 0.843750 0.500000
vt 0.812500 1.000000
vt 0.812500 0.500000
vt 0.781250 1.000000
vt 0.781250 0.500000
vt 0.750000 1.000000
vt 0.750000 0.500000
vt 0.718750 1.000000
vt 0.718750 0.500000
vt 0.687500 1.000000
vt 0.687500 0.500000
vt 0.656250 1.000000
vt 0.656250 0.500000
vt 0.625000 1.000000
vt 0.625000 0.500000
vt 0.593750 1.000000
vt 0.593750 0.500000
vt 0.562500 1.000000
vt 0.562500 0.500000
vt 0.531250 1.000000
vt 0.531250 0.500000
vt 0.500000 1.000000
vt 0.500000 0.500000
vt 0.468750 1.000000
vt 0.468750 0.500000
vt 0.437500 1.000000
vt 0.437500 0.500000
vt 0.406250 1.000000
vt 0.406250 0.500000
vt 0.375000 1.000000
vt 0.375000 0.500000
vt 0.343750 1.000000
vt 0.343750 0.500000
vt 0.312500 1.000000
vt 0.312500 0.500000
vt 0.281250 1.000000
vt 0.281250 0.500000
vt 0.250000 1.000000
vt 0.250000 0.500000
vt 0.218750 1.000000
vt 0.218750 0.500000
vt 0.187500 1.000000
vt 0.187500 0.500000
vt 0.156250 1.000000
vt 0.156250 0.500000
vt 0.125000 1.000000
vt 0.125000 0.500000
vt 0.093750 1.000000
vt 0.093750 0.500000
vt 0.062500 1.000000
vt 0.062500 0.500000
vt 0.906250 1.000000
vt 0.875000 1.000000
vt 0.031250 1.000000
vt 0.031250 0.500000
vt 0.000000 1.000000
vt 0.000000 0.500000
vt 0.750000 0.490000
vt 0.796822 0.485388
vt 0.841844 0.471731
vt 0.883337 0.449553
vt 0.919706 0.419706
vt 0.949553 0.383337
vt 0.971731 0.341844
vt 0.985388 0.296822
vt 0.990000 0.250000
vt 0.985388 0.203178
vt 0.971731 0.158156
vt 0.949553 0.116663
vt 0.919706 0.080294
vt 0.883337 0.050447
vt 0.841844 0.028269
vt 0.796822 0.014612
vt 0.750000 0.010000
vt 0.703178 0.014612
vt 0.658156 0.028269
vt 0.616663 0.050447
vt 0.580294 0.080294
vt 0.550447 0.116663
vt 0.528269 0.158156
vt 0.514611 0.203179
vt 0.510000 0.250000
vt 0.514612 0.296822
vt 0.528269 0.341844
vt 0.550447 0.383337
vt 0.580295 0.419706
vt 0.616663 0.449553
vt 0.658156 0.471731
vt 0.703179 0.485389
vt 0.296822 0.485388
vt 0.250000 0.490000
vt 0.203179 0.485389
vt 0.158156 0.471731
vt 0.116663 0.449553
vt 0.080295 0.419706
vt 0.050447 0.383337
vt 0.028269 0.341844
vt 0.014612 0.296822
vt 0.010000 0.250000
vt 0.014611 0.203179
vt 0.028269 0.158156
vt 0.050447 0.116663
vt 0.080294 0.080294
vt 0.116663 0.050447
vt 0.158156 0.028269
vt 0.203178 0.014612
vt 0.250000 0.010000
vt 0.296822 0.014612
vt 0.341844 0.028269
vt 0.383337 0.050447
vt 0.419706 0.080294
vt 0.449553 0.116663
vt 0.471731 0.158156
vt 0.485388 0.203178
vt 0.490000 0.250000
vt 0.485388 0.296822
vt 0.471731 0.341844
vt 0.449553 0.383337
vt 0.419706 0.419706
vt 0.383337 0.449553
vt 0.341844 0.471731
vt 0.625000 1.000000
vt 0.593750 1.000000
vt 0.343750 1.000000
vt 0.312500 1.000000
vt 0.062500 1.000000
vt 0.031250 1.000000
vt 0.750000 1.000000
vt 0.718750 1.000000
vt 0.468750 1.000000
vt 0.437500 1.000000
vt 0.187500 1.000000
vt 0.156250 1.000000
vt 0.843750 1.000000
vt 0.562500 1.000000
vt 0.281250 1.000000
vt 1.000000 1.000000
vt 0.968750 1.000000
vt 0.000000 1.000000
vt 0.687500 1.000000
vt 0.406250 1.000000
vt 0.125000 1.000000
vt 0.812500 1.000000
vt 0.531250 1.000000
vt 0.250000 1.000000
vt 0.937500 1.000000
vt 0.656250 1.000000
vt 0.375000 1.000000
vt 0.093750 1.000000
vt 0.781250 1.000000
vt 0.500000 1.000000
vt 0.218750 1.000000
vn 0.1017 0.0000 -0.9948
vn 0.3003 0.0000 -0.9539
vn 0.4849 0.0000 -0.8745
vn 0.6483 0.0000 -0.7614
vn 0.7843 0.0000 -0.6204
vn 0.8890 0.0000 -0.4580
vn 0.9598 0.0000 -0.2806
vn 0.9955 0.0000 -0.0945
vn 0.9955 0.0000 0.0945
vn 0.9598 0.0000 0.2806
vn 0.8890 0.0000 0.4580
vn 0.7843 0.0000 0.6204
vn 0.6483 0.0000 0.7614
vn 0.4850 0.0000 0.8745
vn 0.3002 0.0000 0.9539
vn 0.1016 0.0000 0.9948
vn -0.1016 0.0000 0.9948
vn -0.3002 0.0000 0.9539
vn -0.4850 0.0000 0.8745
vn -0.6483 0.0000 0.7614
vn -0.7843 0.0000 0.6204
vn -0.8890 0.0000 0.4580
vn -0.9598 0.0000 0.2806
vn -0.9955 0.0000 0.0945
vn -0.9955 0.0000 -0.0945
vn -0.9598 0.0000 -0.2806
vn -0.8890 0.0000 -0.4580
vn -0.7843 0.0000 -0.6204
vn -0.6483 0.0000 -0.7614
vn -0.4850 0.0000 -0.8745
vn -0.3002 0.0000 -0.9539
vn -0.1017 0.0000 -0.9948
vn 0.0000 -1.0000 -0.0000
vn 0.0000 1.0000 0.0000
vn 0.3002 0.0000 -0.9539
vn 0.4850 0.0000 -0.8745
g Cylinder.100_Cylinder_Material.040
usemtl Material.040
s off
f 1/1/1 2/2/1 4/3/1 3/4/1
f 3/4/2 4/3/2 6/5/2 5/6/2
f 5/6/3 6/5/3 8/7/3 7/8/3
f 7/8/4 8/7/4 10/9/4 9/10/4
f 9/10/5 10/9/5 12/11/5 11/12/5
f 11/12/6 12/11/6 14/13/6 13/14/6
f 13/14/7 14/13/7 16/15/7 15/16/7
f 15/16/8 16/15/8 18/17/8 17/18/8
f 17/18/9 18/17/9 20/19/9 19/20/9
f 19/20/10 20/19/10 22/21/10 21/22/10
f 21/22/11 22/21/11 24/23/11 23/24/11
f 23/24/12 24/23/12 26/25/12 25/26/12
f 25/26/13 26/25/13 28/27/13 27/28/13
f 27/28/14 28/27/14 30/29/14 29/30/14
f 29/30/15 30/29/15 32/31/15 31/32/15
f 31/32/16 32/31/16 34/33/16 33/34/16
f 33/34/17 34/33/17 36/35/17 35/36/17
f 35/36/18 36/35/18 38/37/18 37/38/18
f 37/38/19 38/37/19 40/39/19 39/40/19
f 39/40/20 40/39/20 42/41/20 41/42/20
f 41/42/21 42/41/21 44/43/21 43/44/21
f 43/44/22 44/43/22 46/45/22 45/46/22
f 45/46/23 46/45/23 48/47/23 47/48/23
f 47/48/24 48/47/24 50/49/24 49/50/24
f 49/50/25 50/49/25 52/51/25 51/52/25
f 51/52/26 52/51/26 54/53/26 53/54/26
f 53/54/27 54/53/27 56/55/27 55/56/27
f 55/56/28 56/55/28 58/57/28 57/58/28
f 57/58/29 58/57/29 60/59/29 59/60/29
f 59/60/30 60/59/30 62/61/30 61/62/30
f 10/9/4 8/7/4 68/63/4 69/64/4
f 61/62/31 62/61/31 64/65/31 63/66/31
f 63/66/32 64/65/32 2/67/32 1/68/32
f 1/69/33 3/70/33 5/71/33 7/72/33 9/73/33 11/74/33 13/75/33 15/76/33 17/77/33 19/78/33 21/79/33 23/80/33 25/81/33 27/82/33 29/83/33 31/84/33 33/85/33 35/86/33 37/87/33 39/88/33 41/89/33 43/90/33 45/91/33 47/92/33 49/93/33 51/94/33 53/95/33 55/96/33 57/97/33 59/98/33 61/99/33 63/100/33
f 65/101/34 66/102/34 96/103/34 95/104/34 94/105/34 93/106/34 92/107/34 91/108/34 90/109/34 89/110/34 88/111/34 87/112/34 86/113/34 85/114/34 84/115/34 83/116/34 82/117/34 81/118/34 80/119/34 79/120/34 78/121/34 77/122/34 76/123/34 75/124/34 74/125/34 73/126/34 72/127/34 71/128/34 70/129/34 69/130/34 68/131/34 67/132/34
f 28/27/13 26/25/13 77/133/13 78/134/13
f 46/45/22 44/43/22 86/135/22 87/136/22
f 64/65/31 62/61/31 95/137/31 96/138/31
f 20/19/9 18/17/9 73/139/9 74/140/9
f 38/37/18 36/35/18 82/141/18 83/142/18
f 56/55/27 54/53/27 91/143/27 92/144/27
f 12/11/5 10/9/5 69/64/5 70/145/5
f 30/29/14 28/27/14 78/134/14 79/146/14
f 48/47/23 46/45/23 87/136/23 88/147/23
f 4/3/1 2/2/1 66/148/1 65/149/1
f 2/67/32 64/65/32 96/138/32 66/150/32
f 22/21/10 20/19/10 74/140/10 75/151/10
f 40/39/19 38/37/19 83/142/19 84/152/19
f 58/57/28 56/55/28 92/144/28 93/153/28
f 14/13/6 12/11/6 70/145/6 71/154/6
f 32/31/15 30/29/15 79/146/15 80/155/15
f 50/49/24 48/47/24 88/147/24 89/156/24
f 6/5/35 4/3/35 65/149/35 67/157/35
f 24/23/11 22/21/11 75/151/11 76/158/11
f 42/41/20 40/39/20 84/152/20 85/159/20
f 60/59/29 58/57/29 93/153/29 94/160/29
f 16/15/7 14/13/7 71/154/7 72/161/7
f 34/33/16 32/31/16 80/155/16 81/162/16
f 52/51/25 50/49/25 89/156/25 90/163/25
f 8/7/36 6/5/36 67/157/36 68/63/36
f 26/25/12 24/23/12 76/158/12 77/133/12
f 44/43/21 42/41/21 85/159/21 86/135/21
f 62/61/30 60/59/30 94/160/30 95/137/30
f 18/17/8 16/15/8 72/161/8 73/139/8
f 36/35/17 34/33/17 81/162/17 82/141/17
f 54/53/26 52/51/26 90/163/26 91/143/26
